<?xml version="1.0" standalone="no"?>
<!DOCTYPE svg PUBLIC "-//W3C//DTD SVG 20010904//EN"
 "http://www.w3.org/TR/2001/REC-SVG-20010904/DTD/svg10.dtd">
<svg version="1.0" xmlns="http://www.w3.org/2000/svg"
 width="370.000000pt" height="370.000000pt" viewBox="0 0 370.000000 370.000000"
 preserveAspectRatio="xMidYMid meet">
<metadata>
Created by potrace 1.11, written by Peter Selinger 2001-2013
</metadata>
<g transform="translate(0.000000,370.000000) scale(0.100000,-0.100000)"
fill="#000000" stroke="none">
<path d="M1397 3374 c-4 -4 -32 -6 -63 -5 -31 1 -62 -4 -70 -10 -10 -8 -14 -8
-14 -1 0 13 -29 4 -48 -15 -8 -7 -19 -10 -25 -6 -7 3 -9 3 -5 -2 4 -4 -3 -16
-15 -26 -13 -11 -17 -18 -9 -19 7 0 10 -4 7 -10 -3 -5 1 -10 10 -10 9 0 13 -4
10 -10 -3 -5 -2 -10 4 -10 25 0 9 -88 -20 -106 -6 -4 -6 -11 1 -19 16 -19 -9
-55 -37 -55 -27 0 -37 -15 -25 -37 11 -19 -7 -43 -32 -43 -9 0 -17 -8 -18 -17
-2 -27 -4 -36 -13 -57 -6 -13 -4 -21 4 -24 9 -3 9 -7 0 -18 -6 -8 -9 -14 -5
-14 3 0 -2 -8 -11 -18 -17 -18 -19 -18 -42 0 -17 13 -27 15 -31 7 -4 -6 -10
-10 -14 -10 -17 3 -26 0 -25 -6 4 -22 -2 -35 -14 -30 -8 3 -20 1 -28 -3 -8 -5
-16 -5 -19 0 -3 6 -16 3 -29 -6 -16 -12 -22 -23 -18 -40 2 -14 0 -27 -5 -30
-5 -3 -4 -11 2 -19 8 -9 8 -15 0 -20 -6 -3 -8 -11 -5 -16 7 -10 -34 -28 -74
-32 -15 -2 -32 -6 -38 -10 -7 -4 -14 -3 -18 3 -4 6 -11 8 -16 5 -17 -11 -45
-13 -87 -5 -23 4 -42 4 -42 0 0 -12 -85 -3 -124 14 -19 8 -37 12 -40 8 -12
-11 -6 -22 12 -22 14 0 15 -2 2 -10 -13 -8 -12 -10 3 -10 10 0 16 -4 12 -9 -3
-5 1 -16 9 -24 8 -8 12 -17 9 -21 -4 -3 1 -6 10 -6 9 0 17 -4 17 -9 0 -5 13
-11 29 -14 35 -7 50 -32 54 -86 1 -22 4 -38 6 -35 7 6 41 -38 41 -53 0 -15
-40 -34 -53 -26 -5 3 -17 -3 -28 -13 -10 -9 -19 -14 -19 -10 0 15 -29 -21 -32
-40 -2 -10 -6 -21 -9 -24 -3 -3 -2 -20 3 -39 7 -24 12 -31 18 -22 5 10 9 10
15 2 4 -8 11 -9 18 -3 7 5 20 8 29 7 10 -2 20 1 24 6 3 5 11 6 17 2 18 -11 37
-12 37 -3 0 11 62 5 88 -9 11 -6 23 -7 26 -3 3 5 26 8 51 8 25 -1 45 2 45 7 0
4 7 7 15 7 8 0 15 5 15 10 0 27 32 5 51 -34 11 -24 28 -46 38 -49 11 -2 21
-18 25 -37 8 -41 35 -63 55 -47 12 10 13 9 6 -3 -6 -12 -5 -12 5 -3 7 6 18 9
25 7 15 -6 26 31 13 44 -6 6 -6 12 1 16 7 5 8 13 2 25 -5 9 -6 23 -1 31 4 7 6
19 3 26 -7 20 21 44 38 33 9 -6 10 -12 4 -16 -18 -14 -15 -32 5 -38 15 -5 19
-13 16 -32 -3 -14 -7 -28 -10 -30 -3 -3 2 -12 10 -21 14 -14 14 -16 -1 -24
-12 -7 -13 -13 -5 -23 15 -19 10 -143 -7 -160 -8 -9 -10 -16 -3 -20 6 -4 8
-11 5 -16 -4 -5 2 -12 12 -15 19 -7 117 -104 105 -104 -4 0 6 -7 22 -15 15 -8
36 -15 46 -15 18 0 92 29 76 30 -5 0 0 8 10 18 22 19 29 42 14 42 -6 0 -10 7
-10 15 0 8 5 15 10 15 6 0 10 9 10 20 0 11 5 20 10 20 6 0 10 -5 10 -11 0 -8
4 -8 15 1 12 10 13 6 8 -24 -5 -30 -3 -36 11 -36 16 0 16 -1 1 -16 -14 -15
-14 -19 6 -50 11 -19 17 -34 12 -34 -12 0 -16 -122 -4 -130 6 -3 13 -22 15
-41 3 -18 5 -34 6 -34 1 0 3 -8 5 -17 2 -10 -1 -18 -6 -18 -5 0 -2 -11 7 -25
12 -18 13 -25 4 -25 -10 0 -10 -3 0 -15 7 -8 10 -15 7 -15 -3 0 0 -15 7 -32 7
-18 12 -45 11 -60 0 -16 2 -28 5 -28 5 0 9 -18 12 -57 1 -7 4 -11 6 -8 3 3 18
-22 32 -56 15 -34 33 -65 39 -69 7 -4 11 -11 10 -16 -3 -11 8 -40 27 -76 12
-22 12 -28 2 -28 -10 0 -9 -3 2 -10 8 -5 12 -12 8 -15 -3 -4 0 -22 8 -41 8
-19 15 -37 15 -41 3 -17 14 -40 37 -78 14 -22 24 -40 22 -40 -2 0 7 -19 19
-43 12 -23 19 -42 16 -42 -3 0 0 -10 7 -22 7 -13 11 -27 10 -32 -2 -5 2 -13 9
-17 7 -4 13 -18 14 -31 4 -46 17 -98 26 -98 5 0 9 -7 9 -15 0 -21 47 -60 73
-60 23 0 57 43 57 71 0 8 4 13 9 10 5 -3 12 1 15 10 3 8 10 13 16 9 5 -3 12 6
16 20 3 14 10 25 14 25 5 0 11 13 15 29 4 20 16 33 36 41 28 12 36 30 30 70
-6 45 -10 62 -15 67 -3 4 -1 12 5 20 6 7 8 13 5 13 -4 0 -1 10 6 23 7 12 11
25 10 30 -1 4 3 7 10 7 6 0 9 3 5 6 -3 3 -2 16 3 29 5 13 6 26 2 30 -4 4 -8
11 -8 16 -1 5 -2 12 -4 17 -1 4 -3 32 -5 62 -4 80 -7 94 -18 108 -6 8 -6 12 2
12 6 0 11 7 11 15 0 8 4 15 10 15 5 0 7 6 4 14 -5 14 16 27 49 31 10 1 25 12
34 24 11 17 23 22 42 19 34 -5 54 15 53 53 0 16 3 27 8 24 4 -3 11 2 14 10 3
8 9 14 13 13 5 -2 21 7 37 20 16 12 25 22 20 22 -4 0 6 10 22 23 55 41 102 99
96 120 -1 4 5 7 13 7 8 0 15 8 15 19 0 26 22 42 40 31 23 -15 29 -13 71 30 34
34 39 44 34 71 -7 36 2 72 16 64 5 -4 9 -1 9 4 0 6 9 11 20 11 11 0 20 3 20 8
0 16 41 33 58 23 10 -6 12 -11 5 -11 -7 0 -13 -5 -13 -11 0 -5 5 -7 11 -3 7 4
21 8 33 9 11 1 25 3 29 4 5 0 5 7 1 14 -6 9 -4 9 7 1 19 -15 50 -14 69 1 22
18 50 26 50 15 0 -6 9 -10 20 -10 11 0 29 -6 40 -12 14 -9 23 -10 28 -3 10 14
32 17 32 4 0 -5 5 -7 10 -4 6 3 10 2 10 -3 0 -15 41 -53 51 -47 5 4 6 18 3 32
-6 23 -4 25 15 20 11 -3 19 -1 15 4 -3 5 0 9 6 9 7 0 9 17 6 50 -3 32 -1 50 6
50 5 0 8 7 4 15 -3 8 -1 15 5 15 6 0 7 4 4 10 -11 17 -14 51 -5 45 5 -3 12 -1
15 5 5 8 11 8 20 0 28 -23 68 50 63 115 -2 28 12 75 23 75 5 0 9 7 9 15 0 8
-4 15 -10 15 -6 0 -6 9 0 24 5 13 6 27 3 30 -4 3 3 6 15 6 12 0 22 5 22 12 0
6 3 9 6 6 3 -3 16 5 29 18 13 13 33 24 44 24 21 0 46 32 34 44 -3 3 -2 6 4 6
6 0 11 11 11 25 0 13 -4 22 -9 20 -4 -3 -10 -1 -14 5 -3 5 -19 10 -36 10 -20
0 -29 5 -29 16 0 8 5 12 10 9 6 -3 10 -2 10 2 0 12 -37 42 -44 36 -3 -4 -6 3
-6 15 0 29 -34 29 -54 0 -9 -12 -16 -18 -16 -12 0 5 -18 15 -40 20 -22 6 -37
8 -35 3 3 -4 -4 -10 -15 -14 -11 -3 -20 -10 -20 -15 0 -8 -34 -23 -55 -25 -5
0 -10 -4 -10 -10 -1 -21 -56 -67 -90 -75 -20 -4 -35 -4 -35 1 0 5 -7 9 -15 9
-8 0 -15 4 -15 10 0 11 -28 9 -47 -3 -8 -5 -13 -3 -13 3 0 6 -4 8 -10 5 -5 -3
-10 -1 -10 4 0 6 -3 10 -7 9 -5 0 -16 2 -26 7 -10 4 -31 1 -51 -9 -40 -19 -56
-20 -56 -5 0 5 -4 7 -10 4 -5 -3 -10 0 -10 7 0 9 -3 9 -10 -2 -8 -12 -10 -12
-10 -1 0 10 -3 11 -13 3 -14 -12 -101 -10 -127 2 -9 3 -25 6 -35 5 -11 -1 -31
-1 -45 0 -20 1 -22 3 -10 11 12 8 9 10 -12 10 -15 0 -30 5 -33 10 -4 6 -10 8
-14 6 -4 -3 -13 3 -21 14 -7 10 -19 16 -27 13 -7 -3 -13 0 -13 6 0 6 -5 11
-11 11 -6 0 -17 7 -25 15 -9 8 -12 15 -7 15 4 0 -2 7 -14 15 -12 8 -28 12 -36
9 -8 -3 -23 5 -33 19 -11 13 -31 30 -44 37 -14 7 -35 22 -47 33 -13 11 -23 17
-23 14 0 -4 -9 2 -20 13 -19 19 -56 18 -44 -1 3 -5 -5 -9 -18 -9 -26 1 -61 24
-51 33 3 4 -2 7 -13 7 -11 0 -26 9 -34 20 -8 10 -27 22 -42 26 -16 3 -38 16
-49 27 -11 12 -24 23 -30 23 -5 1 -14 2 -21 3 -6 0 -8 4 -5 7 3 4 1 16 -5 28
-7 11 -11 25 -10 30 2 4 -5 14 -14 20 -19 14 -16 47 5 54 8 3 11 0 7 -7 -5 -7
2 -11 19 -11 29 0 43 23 25 45 -6 8 -8 20 -4 26 5 9 2 10 -9 6 -11 -4 -17 -1
-17 9 0 8 -4 12 -10 9 -5 -3 -10 -1 -10 5 0 6 -4 9 -8 6 -5 -3 -9 0 -9 7 -5
69 -22 107 -49 107 -8 0 -14 7 -14 15 0 9 -7 18 -15 21 -8 4 -12 10 -9 15 3 5
-2 16 -10 25 -9 8 -16 13 -16 9 0 -3 -10 0 -22 7 -13 7 -29 11 -37 9 -8 -1
-17 1 -20 6 -11 14 -50 33 -71 33 -11 0 -21 6 -22 13 0 6 -2 17 -2 22 -6 37
-43 72 -87 80 -12 2 -28 7 -38 10 -10 3 -20 2 -24 -1z"/>
</g>
</svg>
